<?xml version="1.0" encoding="UTF-8" standalone="no"?>
<!-- Created with Inkscape (http://www.inkscape.org/) -->

<svg
   xmlns:dc="http://purl.org/dc/elements/1.1/"
   xmlns:cc="http://creativecommons.org/ns#"
   xmlns:rdf="http://www.w3.org/1999/02/22-rdf-syntax-ns#"
   xmlns:svg="http://www.w3.org/2000/svg"
   xmlns="http://www.w3.org/2000/svg"
   xmlns:sodipodi="http://sodipodi.sourceforge.net/DTD/sodipodi-0.dtd"
   xmlns:inkscape="http://www.inkscape.org/namespaces/inkscape"
   width="23.122749mm"
   height="8.1793642mm"
   viewBox="0 0 23.122749 8.1793642"
   version="1.1"
   id="svg8"
   inkscape:version="0.92.2 2405546, 2018-03-11"
   sodipodi:docname="logo.svg">
  <defs
     id="defs2" />
  <sodipodi:namedview
     id="base"
     pagecolor="#ffffff"
     bordercolor="#666666"
     borderopacity="1.0"
     inkscape:pageopacity="0.0"
     inkscape:pageshadow="2"
     inkscape:zoom="13.639526"
     inkscape:cx="43.696534"
     inkscape:cy="24.932566"
     inkscape:document-units="mm"
     inkscape:current-layer="text3727"
     showgrid="false"
     showguides="true"
     inkscape:guide-bbox="true"
     inkscape:window-width="1344"
     inkscape:window-height="752"
     inkscape:window-x="1446"
     inkscape:window-y="6"
     inkscape:window-maximized="1">
    <sodipodi:guide
       position="9.6317491,0.16139719"
       orientation="0,1"
       id="guide3729"
       inkscape:locked="false" />
  </sodipodi:namedview>
  <metadata
     id="metadata5">
    <rdf:RDF>
      <cc:Work
         rdf:about="">
        <dc:format>image/svg+xml</dc:format>
        <dc:type
           rdf:resource="http://purl.org/dc/dcmitype/StillImage" />
        <dc:title></dc:title>
      </cc:Work>
    </rdf:RDF>
  </metadata>
  <g
     inkscape:label="Layer 1"
     inkscape:groupmode="layer"
     id="layer1"
     transform="translate(-67.073057,-63.716334)">
    <text
       xml:space="preserve"
       style="font-style:normal;font-weight:normal;font-size:10.58333302px;line-height:1.25;font-family:sans-serif;letter-spacing:0px;word-spacing:0px;fill:#000000;fill-opacity:1;stroke:none;stroke-width:0.26458332"
       x="67.279762"
       y="71.726181"
       id="text3715"><tspan
         sodipodi:role="line"
         x="67.279762"
         y="71.726181"
         style="font-style:normal;font-variant:normal;font-weight:normal;font-stretch:normal;font-family:'Fredericka the Great';-inkscape-font-specification:'Fredericka the Great';stroke-width:0.26458332"
         id="tspan3717">K<tspan
   style="font-style:normal;font-variant:normal;font-weight:normal;font-stretch:normal;font-family:Sacramento;-inkscape-font-specification:Sacramento"
   id="tspan3721" /></tspan></text>
    <g
       aria-label="inese"
       style="font-style:normal;font-weight:normal;font-size:10.58333302px;line-height:1.25;font-family:sans-serif;letter-spacing:0px;word-spacing:0px;fill:#000000;fill-opacity:1;stroke:none;stroke-width:0.26458332"
       id="text3727">
      <path
         d="m 76.142769,67.142176 c 0,0.130914 -0.04651,0.24288 -0.139527,0.335897 -0.08957,0.08957 -0.199815,0.134359 -0.330729,0.134359 -0.130913,0 -0.242879,-0.04479 -0.335896,-0.134359 -0.08957,-0.09302 -0.134359,-0.204983 -0.134359,-0.335897 0,-0.06546 0.01206,-0.125749 0.03617,-0.180867 0.02411,-0.05857 0.05684,-0.108521 0.09819,-0.149862 0.04479,-0.04479 0.09474,-0.07924 0.149861,-0.103353 0.05857,-0.02411 0.120578,-0.03617 0.186035,-0.03617 0.06546,0 0.125749,0.01206 0.180868,0.03617 0.05857,0.02411 0.10852,0.05856 0.149861,0.103353 0.04479,0.04134 0.07924,0.09129 0.103353,0.149862 0.02411,0.05512 0.03617,0.115409 0.03617,0.180867 z m -0.837158,3.028239 c 0,-0.496093 0.03101,-0.990464 0.09302,-1.483113 0.0069,-0.04823 0.02756,-0.08957 0.06201,-0.124024 0.03789,-0.03789 0.08613,-0.05684 0.144694,-0.05684 0.05168,0 0.09474,0.02067 0.129191,0.06201 0.03445,0.03789 0.05168,0.08268 0.05168,0.134359 0,0.02067 -0.0052,0.08268 -0.0155,0.186035 -0.0069,0.103353 -0.01723,0.227376 -0.03101,0.37207 -0.01033,0.141249 -0.02067,0.292833 -0.03101,0.454753 -0.0069,0.158474 -0.01033,0.30489 -0.01033,0.439249 0,0.18259 0.01723,0.330729 0.05168,0.444418 0.03789,0.110243 0.0844,0.19637 0.139526,0.258382 0.05857,0.06201 0.118856,0.103354 0.180868,0.124023 0.06546,0.02067 0.127472,0.03101 0.186035,0.03101 0.09646,0 0.19637,-0.03445 0.299723,-0.103353 0.103353,-0.0689 0.17696,-0.151107 0.265114,-0.331149 0.06079,-0.162741 0.08004,-0.195284 0.182764,-0.472562 0.07488,-0.196559 0.221875,-0.403534 0.328673,-0.61713 0.01723,-0.03445 0.04134,-0.101631 0.07235,-0.118851 0.03101,-0.02067 0.01821,-0.03692 0.05611,-0.03692 0.05512,0 0.09991,0.02067 0.134359,0.06201 0.03789,0.04134 0.05684,0.08613 0.05684,0.134359 0,0.03445 -0.0069,0.06374 -0.02067,0.08785 -0.04134,0.07924 -0.07825,0.193418 -0.140264,0.307106 -0.07678,0.178652 -0.143638,0.330841 -0.193552,0.522172 -0.06211,0.189472 -0.073,0.206996 -0.148415,0.358841 -0.09751,0.165294 -0.107704,0.17955 -0.202099,0.282214 -0.106798,0.09302 -0.221185,0.177077 -0.338318,0.235644 -0.117133,0.05857 -0.233066,0.09077 -0.353645,0.09077 -0.155029,0 -0.295244,-0.041 -0.412377,-0.106458 -0.117133,-0.06546 -0.217041,-0.15331 -0.299724,-0.26355 -0.07924,-0.110243 -0.139526,-0.239434 -0.180867,-0.387573 -0.03789,-0.151585 -0.05684,-0.313504 -0.05684,-0.485759 z m 0.54777,-3.028239 c 0,-0.04823 -0.01895,-0.08957 -0.05684,-0.124023 -0.03445,-0.03789 -0.07579,-0.05684 -0.124024,-0.05684 -0.04823,0 -0.08957,0.01895 -0.124023,0.05684 -0.03445,0.03445 -0.05168,0.07579 -0.05168,0.124023 0,0.04823 0.01723,0.08957 0.05168,0.124024 0.03445,0.03445 0.07579,0.05168 0.124023,0.05168 0.04823,0 0.08957,-0.01723 0.124024,-0.05168 0.03789,-0.03445 0.05684,-0.07579 0.05684,-0.124024 z"
         style="font-style:normal;font-variant:normal;font-weight:normal;font-stretch:normal;font-family:Sacramento;-inkscape-font-specification:Sacramento;stroke-width:0.26458332"
         id="path3751"
         inkscape:connector-curvature="0"
         sodipodi:nodetypes="ccscscccsccccccccscscccscccscccscscscccccsscccccscscscscs" />
      <path
         d="m 78.160365,71.182535 c 0.05512,-0.113688 0.118854,-0.237711 0.191202,-0.37207 0.07235,-0.137804 0.149862,-0.275608 0.232544,-0.413411 0.08268,-0.141249 0.16881,-0.280776 0.258383,-0.418579 0.09302,-0.137804 0.18948,-0.268718 0.289388,-0.392741 0.09991,-0.120579 0.199815,-0.206706 0.299723,-0.258382 0.103353,-0.05512 0.199815,-0.08268 0.289388,-0.08268 0.179145,0 0.311781,0.06546 0.397908,0.196371 0.08613,0.130913 0.129191,0.292833 0.129191,0.485758 0,0.04479 -0.0034,0.09991 -0.01033,0.165365 -0.0035,0.06201 -0.0086,0.129193 -0.0155,0.201538 -0.0035,0.07235 -0.0086,0.146416 -0.0155,0.222208 -0.0035,0.07235 -0.0052,0.141249 -0.0052,0.206706 0,0.08268 0.0034,0.16192 0.01033,0.237712 0.01033,0.07579 0.02756,0.142971 0.05168,0.201538 0.02411,0.05512 0.05856,0.09991 0.103353,0.134359 0.04479,0.03101 0.103353,0.04651 0.1757,0.04651 0.130914,0 0.258383,-0.04995 0.382406,-0.149861 0.124023,-0.103353 0.237711,-0.223932 0.341064,-0.361735 0.106798,-0.141249 0.198093,-0.284221 0.273885,-0.428915 0.07924,-0.144694 0.137804,-0.261827 0.1757,-0.351399 0.01723,-0.03789 0.04134,-0.06718 0.07235,-0.08785 0.03445,-0.02067 0.07063,-0.03101 0.108521,-0.03101 0.05857,0 0.105075,0.02239 0.139526,0.06718 0.03789,0.04134 0.05684,0.08613 0.05684,0.134359 0,0.02411 -0.0052,0.04823 -0.0155,0.07235 -0.01378,0.02756 -0.04134,0.0844 -0.08268,0.170532 -0.04134,0.08613 -0.09646,0.186035 -0.165365,0.299723 -0.06546,0.110243 -0.142975,0.229099 -0.232544,0.356568 -0.08957,0.124023 -0.18948,0.237711 -0.299723,0.341064 -0.106798,0.103353 -0.223931,0.18948 -0.3514,0.258382 -0.124023,0.0689 -0.254937,0.103353 -0.392741,0.103353 -0.155029,0 -0.280775,-0.02928 -0.377238,-0.08785 -0.09646,-0.06201 -0.172255,-0.14125 -0.227376,-0.237711 -0.05512,-0.09991 -0.09302,-0.208429 -0.113688,-0.325562 -0.01723,-0.120578 -0.02584,-0.241156 -0.02584,-0.361735 0,-0.05168 0.0017,-0.110247 0.0052,-0.1757 0.0069,-0.06546 0.01378,-0.134362 0.02067,-0.206705 0.01033,-0.07235 0.01722,-0.144694 0.02067,-0.217041 0.0069,-0.07235 0.01033,-0.141249 0.01033,-0.206706 0,-0.110243 -0.01723,-0.184313 -0.05168,-0.222209 -0.03445,-0.04134 -0.06546,-0.06201 -0.09302,-0.06201 -0.05512,0 -0.118854,0.03273 -0.191203,0.09819 -0.0689,0.06201 -0.142972,0.144696 -0.222209,0.248047 -0.07579,0.103353 -0.155029,0.220486 -0.237711,0.351399 -0.07924,0.127469 -0.155029,0.254937 -0.227376,0.382406 -0.0689,0.127469 -0.134359,0.24977 -0.196371,0.366903 -0.05857,0.113688 -0.105075,0.208428 -0.139526,0.28422 -0.0689,0.144694 -0.137804,0.241157 -0.206706,0.289388 -0.0689,0.05167 -0.139526,0.07751 -0.211873,0.07751 -0.09991,0 -0.180868,-0.02928 -0.24288,-0.08785 -0.05857,-0.06201 -0.08785,-0.148141 -0.08785,-0.258383 0,-0.02411 0.0034,-0.07062 0.01034,-0.139526 0.0069,-0.07235 0.0155,-0.156751 0.02584,-0.253214 0.01033,-0.09991 0.02067,-0.206706 0.03101,-0.320394 0.01033,-0.113689 0.02067,-0.225654 0.03101,-0.335897 0.01033,-0.113688 0.01895,-0.218763 0.02584,-0.315226 0.0069,-0.09646 0.01034,-0.177423 0.01034,-0.24288 0,-0.08613 -0.0034,-0.168809 -0.01034,-0.248046 -0.0069,-0.07924 -0.02067,-0.127469 -0.04134,-0.144694 -0.03101,0.01033 -0.08613,0.07579 -0.165365,0.19637 -0.07924,0.117133 -0.180868,0.325562 -0.304891,0.625285 -0.01723,0.03789 -0.04306,0.06718 -0.07751,0.08785 -0.03445,0.02067 -0.07063,0.03101 -0.108521,0.03101 -0.05857,0 -0.105075,-0.01895 -0.139526,-0.05684 -0.03445,-0.04134 -0.03721,-0.08785 -0.03721,-0.139527 0,-0.02411 0.0092,-0.0565 0.01953,-0.08406 0.155029,-0.368625 0.281237,-0.632519 0.415596,-0.804774 0.137804,-0.1757 0.273885,-0.26355 0.408244,-0.26355 0.07924,0 0.146417,0.02067 0.201538,0.06201 0.05512,0.03789 0.09818,0.08957 0.129191,0.15503 0.03445,0.06546 0.05857,0.137807 0.07235,0.217041 0.01723,0.07924 0.02584,0.160197 0.02584,0.242879 0,0.06201 -0.0052,0.158476 -0.0155,0.289388 -0.0069,0.130913 -0.01723,0.272162 -0.03101,0.423747 l -0.04134,0.444417 c -0.01033,0.148139 -0.02067,0.272163 -0.03101,0.37207 z"
         style="font-style:normal;font-variant:normal;font-weight:normal;font-stretch:normal;font-family:Sacramento;-inkscape-font-specification:Sacramento;stroke-width:0.26458332"
         id="path3753"
         inkscape:connector-curvature="0"
         sodipodi:nodetypes="ccccccscscccscccscccccscsccccccscccscccscscccccccscsccccsscccccscsccscccsccccc" />
      <path
         d="m 82.346156,71.079183 q 0.10852,0.149861 0.279052,0.242879 0.170533,0.08785 0.418579,0.08785 0.253215,0 0.459921,-0.118856 0.206705,-0.124024 0.377238,-0.320394 0.170532,-0.19637 0.304891,-0.43925 0.134358,-0.242879 0.242879,-0.485758 0.02584,-0.05684 0.07235,-0.08268 0.04651,-0.03101 0.103353,-0.03101 0.08785,0 0.139526,0.06201 0.05684,0.06201 0.05684,0.134359 0,0.02584 -0.0052,0.04651 -0.0052,0.0155 -0.0155,0.03617 -0.356568,0.785482 -0.780315,1.183391 -0.418579,0.397908 -0.950846,0.408244 -0.341064,0 -0.589111,-0.134359 -0.248047,-0.129191 -0.408244,-0.335897 -0.160197,-0.211873 -0.237712,-0.475423 -0.07751,-0.26355 -0.07751,-0.5271 0,-0.26355 0.06201,-0.485758 0.06718,-0.222209 0.186035,-0.387573 0.124023,-0.165365 0.289388,-0.258383 0.170532,-0.09302 0.37207,-0.09302 0.118856,0 0.232544,0.05168 0.118856,0.04651 0.211873,0.139527 0.09302,0.08785 0.149862,0.217041 0.05684,0.129191 0.05684,0.294555 0,0.211874 -0.07235,0.397909 -0.07235,0.186035 -0.201538,0.346232 -0.124024,0.160197 -0.299723,0.294556 -0.1757,0.134358 -0.377238,0.232544 z m -0.15503,-0.335897 q 0.160197,-0.06718 0.289388,-0.170533 0.134359,-0.103352 0.227377,-0.227376 0.09302,-0.124023 0.144694,-0.258382 0.05168,-0.139526 0.05168,-0.279053 0,-0.155029 -0.07752,-0.232544 -0.07751,-0.08268 -0.180867,-0.08268 -0.139526,0 -0.237712,0.07752 -0.09819,0.07751 -0.160197,0.201538 -0.06201,0.124023 -0.09302,0.279053 -0.02584,0.149861 -0.02584,0.299723 0,0.09302 0.0155,0.19637 0.02067,0.103353 0.04651,0.196371 z"
         style="font-style:normal;font-variant:normal;font-weight:normal;font-stretch:normal;font-family:Sacramento;-inkscape-font-specification:Sacramento;stroke-width:0.26458332"
         id="path3755"
         inkscape:connector-curvature="0" />
      <path
         d="m 85.007492,69.735595 q -0.03101,0.08268 -0.07752,0.186035 -0.04134,0.103353 -0.09819,0.217041 -0.04651,0.08785 -0.09818,0.139527 -0.04651,0.04651 -0.124024,0.04651 -0.08785,0 -0.139526,-0.05168 -0.05168,-0.05684 -0.05168,-0.129191 0,-0.02584 0.0052,-0.04134 0.0052,-0.02067 0.02584,-0.06201 0.134359,-0.258382 0.196371,-0.449585 0.06718,-0.19637 0.10852,-0.408244 -0.03617,-0.118855 -0.05168,-0.201538 -0.0155,-0.08268 -0.0155,-0.170532 0,-0.170532 0.07235,-0.273885 0.07235,-0.10852 0.201538,-0.10852 0.118856,0 0.186035,0.103352 0.07235,0.103353 0.07235,0.253215 0,0.08268 -0.0155,0.165365 -0.0155,0.08268 -0.04134,0.206705 0.118856,0.294556 0.237711,0.521932 0.118856,0.227377 0.211874,0.418579 0.09302,0.186035 0.149862,0.3514 0.06201,0.165365 0.06201,0.330729 0,0.217041 -0.08785,0.413412 -0.08785,0.19637 -0.289388,0.330729 0.02584,0.0052 0.05168,0.0052 0.02584,0 0.05168,0 0.294556,0 0.542603,-0.134358 0.248047,-0.134359 0.444417,-0.346232 0.201538,-0.217041 0.356567,-0.475424 0.15503,-0.263549 0.268718,-0.521931 0.05168,-0.118856 0.144694,-0.118856 0.08785,0 0.134359,0.06201 0.05168,0.06201 0.05168,0.134359 0,0.04134 -0.0155,0.07751 -0.05684,0.139526 -0.149862,0.320394 -0.08785,0.1757 -0.217041,0.366902 -0.124023,0.186036 -0.289388,0.366903 -0.165364,0.180868 -0.37207,0.325562 -0.201538,0.139526 -0.444417,0.222208 -0.242879,0.08785 -0.532268,0.08785 -0.346232,0 -0.645955,-0.124023 -0.294556,-0.118856 -0.480591,-0.397909 -0.03101,-0.04651 -0.03101,-0.09819 0,-0.07752 0.05684,-0.134359 0.06201,-0.06201 0.139526,-0.06201 0.08268,0 0.139526,0.05684 0.0052,0.01033 0.03617,0.03617 0.03101,0.02067 0.07235,0.05168 0.04651,0.02584 0.103353,0.04651 0.06201,0.02067 0.124023,0.02067 0.124023,0 0.206706,-0.05168 0.08785,-0.05168 0.139526,-0.124023 0.05168,-0.07752 0.07235,-0.160197 0.02584,-0.08785 0.02584,-0.149862 0,-0.129191 -0.04134,-0.258382 -0.04134,-0.129191 -0.10852,-0.258382 -0.06201,-0.129191 -0.139527,-0.26355 -0.07235,-0.139526 -0.134358,-0.289388 z"
         style="font-style:normal;font-variant:normal;font-weight:normal;font-stretch:normal;font-family:Sacramento;-inkscape-font-specification:Sacramento;stroke-width:0.26458332"
         id="path3757"
         inkscape:connector-curvature="0" />
      <path
         d="m 87.741175,71.079183 q 0.108521,0.149861 0.279053,0.242879 0.170532,0.08785 0.418579,0.08785 0.253215,0 0.45992,-0.118856 0.206706,-0.124024 0.377238,-0.320394 0.170532,-0.19637 0.304891,-0.43925 0.134359,-0.242879 0.242879,-0.485758 0.02584,-0.05684 0.07235,-0.08268 0.04651,-0.03101 0.103353,-0.03101 0.08785,0 0.139527,0.06201 0.05684,0.06201 0.05684,0.134359 0,0.02584 -0.0052,0.04651 -0.0052,0.0155 -0.0155,0.03617 -0.356567,0.785482 -0.780314,1.183391 -0.418579,0.397908 -0.950846,0.408244 -0.341065,0 -0.589112,-0.134359 -0.248047,-0.129191 -0.408243,-0.335897 -0.160197,-0.211873 -0.237712,-0.475423 -0.07751,-0.26355 -0.07751,-0.5271 0,-0.26355 0.06201,-0.485758 0.06718,-0.222209 0.186035,-0.387573 0.124024,-0.165365 0.289388,-0.258383 0.170532,-0.09302 0.372071,-0.09302 0.118855,0 0.232543,0.05168 0.118856,0.04651 0.211874,0.139527 0.09302,0.08785 0.149861,0.217041 0.05684,0.129191 0.05684,0.294555 0,0.211874 -0.07235,0.397909 -0.07235,0.186035 -0.201539,0.346232 -0.124023,0.160197 -0.299723,0.294556 -0.1757,0.134358 -0.377238,0.232544 z m -0.155029,-0.335897 q 0.160197,-0.06718 0.289388,-0.170533 0.134359,-0.103352 0.227376,-0.227376 0.09302,-0.124023 0.144694,-0.258382 0.05168,-0.139526 0.05168,-0.279053 0,-0.155029 -0.07751,-0.232544 -0.07752,-0.08268 -0.180867,-0.08268 -0.139527,0 -0.237712,0.07752 -0.09819,0.07751 -0.160197,0.201538 -0.06201,0.124023 -0.09302,0.279053 -0.02584,0.149861 -0.02584,0.299723 0,0.09302 0.0155,0.19637 0.02067,0.103353 0.04651,0.196371 z"
         style="font-style:normal;font-variant:normal;font-weight:normal;font-stretch:normal;font-family:Sacramento;-inkscape-font-specification:Sacramento;stroke-width:0.26458332"
         id="path3759"
         inkscape:connector-curvature="0" />
    </g>
  </g>
</svg>
